<?xml version="1.0" encoding="UTF-8"?>
<svg width="281px" height="252px" viewBox="0 0 281 252" version="1.1" xmlns="http://www.w3.org/2000/svg" xmlns:xlink="http://www.w3.org/1999/xlink">
    <title>gamer</title>
    <defs>
        <filter x="-22.3%" y="-39.8%" width="144.6%" height="179.6%" filterUnits="objectBoundingBox" id="filter-1">
            <feOffset dx="0" dy="20" in="SourceAlpha" result="shadowOffsetOuter1"></feOffset>
            <feColorMatrix values="0 0 0 0 0   0 0 0 0 0   0 0 0 0 0  0 0 0 0.325857736 0" type="matrix" in="shadowOffsetOuter1" result="shadowMatrixOuter1"></feColorMatrix>
            <feMerge>
                <feMergeNode in="shadowMatrixOuter1"></feMergeNode>
                <feMergeNode in="SourceGraphic"></feMergeNode>
            </feMerge>
        </filter>
    </defs>
    <g id="Page-1" stroke="none" stroke-width="1" fill="none" fill-rule="evenodd">
        <g id="gamer" filter="url(#filter-1)" transform="translate(140.750000, 125.933013) rotate(-30.000000) translate(-140.750000, -125.933013) translate(53.250000, 76.933013)" fill-rule="nonzero">
            <path d="M136.297732,-5.68434189e-14 L38.7019264,-5.68434189e-14 C17.3615384,-5.68434189e-14 -7.10542736e-14,17.3883777 -7.10542736e-14,38.7617561 L-7.10542736e-14,58.9852661 C-7.10542736e-14,59.1122685 0.0047851469,59.2379016 0.0136718483,59.3628501 C0.261132302,69.6904408 4.44164172,79.3600836 11.8052992,86.6204459 C19.2475698,93.9585158 29.0981365,98 39.5430868,98 C49.9880371,98 59.8386038,93.9588582 67.2808745,86.6204459 C73.5203642,80.4685306 77.4742627,72.5875338 78.6869557,64.0414003 L96.3130443,64.0414003 C97.5257373,72.5875338 101.479636,80.4685306 107.719126,86.6204459 C115.161396,93.9585158 125.011963,98 135.456913,98 C145.901863,98 155.75243,93.9588582 163.194701,86.6204459 C170.557675,79.3604259 174.738526,69.6904408 174.986328,59.3635347 C174.995557,59.2389286 175,59.1126108 175,58.9852661 L175,38.7617561 C175,17.3883777 157.63812,-5.68434189e-14 136.297732,-5.68434189e-14 Z M136.297732,-5.68434189e-14 L38.7019264,-5.68434189e-14 C17.3615384,-5.68434189e-14 -5.68434189e-14,17.3883777 -5.68434189e-14,38.7617561 L-5.68434189e-14,58.9852661 C-5.68434189e-14,59.1122685 0.0047851469,59.2379016 0.0136718483,59.3628501 C0.261132302,69.6904408 4.44164172,79.3600836 11.8052992,86.6204459 C19.2475698,93.9585158 29.0981365,98 39.5430868,98 C49.9880371,98 59.8386038,93.9588582 67.2808745,86.6204459 C73.5203642,80.4685306 77.4742627,72.5875338 78.6869557,64.0414003 L96.3130443,64.0414003 C97.5257373,72.5875338 101.479636,80.4685306 107.719126,86.6204459 C115.161396,93.9585158 125.011963,98 135.456913,98 C145.901863,98 155.75243,93.9588582 163.194701,86.6204459 C170.557675,79.3604259 174.738526,69.6904408 174.986328,59.3635347 C174.995557,59.2389286 175,59.1126108 175,58.9852661 L175,38.7617561 C175,17.3883777 157.63812,-5.68434189e-14 136.297732,-5.68434189e-14 Z" id="Shape" fill="#00607F"></path>
            <path d="M53.0047305,54.0557919 L44.5914168,54.0557919 L44.5914168,62.4821118 C44.5914168,65.2741112 42.3311185,67.5379037 39.5434286,67.5379037 C36.7557388,67.5379037 34.4954404,65.2741112 34.4954404,62.4821118 L34.4954404,54.0557919 L26.081785,54.0557919 C23.2937533,54.0557919 21.0337968,51.7919994 21.0337968,49 C21.0337968,46.2080006 23.2940951,43.9442081 26.081785,43.9442081 L34.4950986,43.9442081 L34.4950986,35.5178882 C34.4950986,32.7258888 36.755397,30.4620963 39.5430868,30.4620963 C42.3307767,30.4620963 44.591075,32.7258888 44.591075,35.5178882 L44.591075,43.9442081 L53.0043887,43.9442081 C55.7924203,43.9442081 58.0523769,46.2080006 58.0523769,49 C58.0523769,51.7919994 55.7924203,54.0557919 53.0047305,54.0557919 Z" id="Path" fill="#002C3C"></path>
            <path d="M77.4038527,33.8322819 L74.0385273,33.8322819 C71.2508374,33.8322819 68.9905391,31.5684894 68.9905391,28.77649 C68.9905391,25.9844906 71.2508374,23.7206981 74.0385273,23.7206981 L77.4038527,23.7206981 C80.1918844,23.7206981 82.4518409,25.9844906 82.4518409,28.77649 C82.4518409,31.5684894 80.1915426,33.8322819 77.4038527,33.8322819 Z" id="Path" fill="#002C3C"></path>
            <path d="M100.961473,33.8322819 L97.5961473,33.8322819 C94.8081156,33.8322819 92.5481591,31.5684894 92.5481591,28.77649 C92.5481591,25.9844906 94.8084574,23.7206981 97.5961473,23.7206981 L100.961473,23.7206981 C103.749163,23.7206981 106.009461,25.9844906 106.009461,28.77649 C106.009461,31.5684894 103.749163,33.8322819 100.961473,33.8322819 Z" id="Path" fill="#002C3C"></path>
            <path d="M127.019332,49.4984246 C127.002584,49.6603441 126.979,49.8256869 126.945162,49.9872641 C126.911324,50.1491837 126.870992,50.3107609 126.824166,50.4692572 C126.776998,50.6243302 126.719919,50.7831688 126.656003,50.9348186 C126.595505,51.0861261 126.524753,51.2346949 126.447507,51.3794982 C126.370603,51.5277248 126.283103,51.6694472 126.191843,51.8077463 C126.100926,51.9422799 126.003514,52.0774981 125.898924,52.2055275 C125.794334,52.3335569 125.683592,52.458163 125.565673,52.5728418 C125.447753,52.6912861 125.323339,52.8018569 125.195507,52.9100315 C125.071094,53.0110173 124.936426,53.1126877 124.79834,53.2034037 C124.660255,53.2948044 124.519093,53.3790162 124.373829,53.4560392 C124.22925,53.5337469 124.077834,53.6042658 123.926418,53.6682805 C123.775002,53.7322952 123.616409,53.7867248 123.461575,53.8367042 C123.303324,53.8842873 123.142338,53.9243393 122.980326,53.9551485 C122.818998,53.9886963 122.653911,54.0157399 122.492241,54.0294329 C122.327495,54.0462068 122.159332,54.0564766 121.994586,54.0564766 C121.82984,54.0564766 121.664753,54.0462068 121.500007,54.0294329 C121.335261,54.0160823 121.170173,53.9890386 121.008162,53.9551485 C120.846834,53.9243393 120.685165,53.8842873 120.530331,53.8367042 C120.372079,53.7863825 120.217246,53.7322952 120.062412,53.6682805 C119.910996,53.6046081 119.762999,53.5337469 119.618077,53.4560392 C119.473497,53.3790162 119.328917,53.294462 119.193908,53.2034037 C119.055822,53.1123453 118.921154,53.0113596 118.793664,52.9100315 C118.665491,52.8021993 118.541419,52.6912861 118.426575,52.5728418 C118.308656,52.458163 118.197914,52.3335569 118.089906,52.2055275 C117.989076,52.0774981 117.887905,51.9426222 117.797329,51.8077463 C117.706069,51.6694472 117.621987,51.5280671 117.545083,51.3794982 C117.467495,51.2346949 117.397085,51.0861261 117.332827,50.9348186 C117.269253,50.7831688 117.214908,50.6243302 117.164664,50.4692572 C117.117496,50.3107609 117.077164,50.149526 117.043668,49.9872641 C117.013248,49.8256869 116.986588,49.6603441 116.972916,49.4984246 C116.956168,49.3334242 116.945914,49.1650005 116.945914,49 C116.945914,48.8349995 116.956168,48.6662335 116.972916,48.5012331 C116.986246,48.3396559 117.013248,48.1743131 117.043668,48.0123935 C117.077164,47.8508163 117.117838,47.6888968 117.164664,47.5338238 C117.21525,47.3753275 117.269253,47.2171735 117.332827,47.0651814 C117.396743,46.9135316 117.467495,46.7653051 117.545083,46.6201594 C117.621987,46.4722752 117.706411,46.3305528 117.797329,46.1922537 C117.888246,46.0573778 117.988734,45.9225019 118.089906,45.7944725 C118.197572,45.6661008 118.308656,45.541837 118.426575,45.4233926 C118.541419,45.3087139 118.665491,45.1940352 118.793664,45.0896262 C118.921496,44.9852172 119.055822,44.8873123 119.193908,44.796254 C119.328576,44.7051956 119.473155,44.6209838 119.618077,44.5436184 C119.762999,44.4665954 119.910996,44.3957342 120.062412,44.3313772 C120.217246,44.2677048 120.372079,44.2132752 120.530331,44.1629535 C120.685165,44.1157127 120.846834,44.0753184 121.008162,44.0421129 C121.169832,44.011646 121.334919,43.9849447 121.500007,43.9674861 C121.826422,43.933596 122.163091,43.933596 122.492583,43.9674861 C122.654253,43.9846024 122.81934,44.011646 122.980668,44.0421129 C123.142338,44.0756607 123.303665,44.1163973 123.461917,44.1629535 C123.616751,44.2136175 123.775344,44.2677048 123.92676,44.3313772 C124.077834,44.3953919 124.22925,44.4662531 124.374171,44.5436184 C124.519093,44.6213261 124.660596,44.705538 124.798682,44.796254 C124.936768,44.8876547 125.071435,44.9852172 125.195849,45.0896262 C125.323681,45.1943775 125.448095,45.3087139 125.566015,45.4233926 C125.684276,45.541837 125.79536,45.6661008 125.899266,45.7944725 C126.003855,45.9225019 126.101609,46.0570355 126.192185,46.1922537 C126.283445,46.3305528 126.370603,46.4719329 126.447849,46.6201594 C126.525436,46.7653051 126.595846,46.9135316 126.656344,47.0651814 C126.72026,47.2168312 126.77734,47.3753275 126.824508,47.5338238 C126.872018,47.6888968 126.912008,47.8508163 126.945504,48.0123935 C126.979342,48.1743131 127.002584,48.3396559 127.019674,48.5012331 C127.036422,48.6662335 127.043258,48.8349995 127.043258,49 C127.043258,49.1650005 127.03608,49.3334242 127.019332,49.4984246 Z" id="Path" fill="#002C3C"></path>
            <path d="M130.43456,35.0215175 C130.451308,34.8565171 130.474892,34.6911743 130.508729,34.5292548 C130.539149,34.3676776 130.579481,34.205758 130.629725,34.050685 C130.676893,33.8921887 130.733973,33.7371157 130.794471,33.5820426 C130.858387,33.4303928 130.929139,33.2821663 131.006727,33.1370207 C131.083972,32.9922174 131.168054,32.8474141 131.258972,32.7121958 C131.34989,32.5738967 131.450378,32.4390208 131.55155,32.3113337 C131.659216,32.182962 131.770299,32.0586982 131.888219,31.9436771 C132.003062,31.8255751 132.127135,31.7143196 132.255308,31.6064874 C132.38314,31.5055016 132.517466,31.4041736 132.652475,31.3134575 C132.790561,31.2220569 132.931723,31.137845 133.079721,31.060822 C133.224642,30.9834566 133.37264,30.9125954 133.524056,30.8482384 C133.675471,30.7845661 133.833723,30.7301364 133.991975,30.6798147 C134.146808,30.6325739 134.308478,30.5921796 134.469806,30.5589741 C134.631475,30.5285073 134.796563,30.5018059 134.96165,30.4843474 C135.288066,30.4538805 135.624735,30.4538805 135.954227,30.4843474 C136.115896,30.5014636 136.280984,30.5285073 136.442312,30.5589741 C136.603981,30.592522 136.765309,30.6332586 136.923561,30.6798147 C137.078394,30.7304788 137.236988,30.7845661 137.388404,30.8482384 C137.539477,30.9122531 137.690893,30.9831143 137.835815,31.060822 C137.980736,31.137845 138.12224,31.2223992 138.260326,31.3134575 C138.398411,31.4045159 138.533079,31.5051593 138.657493,31.6064874 C138.785325,31.7143196 138.909738,31.8255751 139.027658,31.9436771 C139.142502,32.0586982 139.257003,32.182962 139.360909,32.3113337 C139.465499,32.4393631 139.563253,32.5738967 139.653829,32.7121958 C139.745088,32.8470717 139.832246,32.991875 139.909492,33.1370207 C139.984004,33.2821663 140.054414,33.4303928 140.117988,33.5820426 C140.181904,33.7371157 140.238984,33.8921887 140.286152,34.050685 C140.333661,34.205758 140.373652,34.3676776 140.407148,34.5292548 C140.437568,34.6911743 140.464228,34.8565171 140.481317,35.0215175 C140.498065,35.186518 140.504902,35.3515185 140.504902,35.5168612 C140.505243,36.8485039 139.966572,38.1496797 139.027658,39.0931263 C138.909738,39.2081473 138.785325,39.3228261 138.657493,39.4268927 C138.529661,39.5316441 138.398411,39.6295489 138.260326,39.7202649 C138.12224,39.8116656 137.981078,39.8989584 137.835815,39.9763237 C137.691235,40.0509505 137.539819,40.1245503 137.388404,40.1851417 C137.236988,40.2491564 137.078394,40.3063246 136.923561,40.3535654 C136.765309,40.4011485 136.604323,40.4412005 136.442312,40.4747483 C136.280984,40.5052152 136.115896,40.5319165 135.954227,40.5490328 C135.789481,40.5658067 135.621317,40.5726532 135.456571,40.5726532 C135.291826,40.5726532 135.126738,40.5654643 134.961992,40.5490328 C134.797246,40.5322589 134.632159,40.5052152 134.470148,40.4747483 C134.30882,40.4408582 134.14715,40.4004639 133.992316,40.3535654 C133.834065,40.3063246 133.676155,40.2491564 133.524397,40.1851417 C133.372982,40.1245503 133.224984,40.0506082 133.080062,39.9763237 C132.932406,39.8989584 132.790903,39.8113233 132.652817,39.7202649 C132.518149,39.6292066 132.383482,39.5316441 132.25565,39.4268927 C132.127476,39.3224837 132.003404,39.2081473 131.888561,39.0931263 C131.770641,38.9750243 131.659557,38.8504181 131.551892,38.7223887 C131.451062,38.5943593 131.34989,38.4594834 131.259314,38.3246075 C131.168054,38.1863084 131.083972,38.0449284 131.007068,37.8963595 C130.929822,37.7546371 130.859071,37.6029873 130.794813,37.4516798 C130.734315,37.30003 130.676893,37.1411914 130.630067,36.9861184 C130.579481,36.8276221 130.538808,36.6663872 130.509071,36.5041254 C130.475575,36.3425482 130.451991,36.1772054 130.434901,36.0152858 C130.418153,35.8502854 130.407891,35.6818617 130.407891,35.5168612 C130.407558,35.3518608 130.417812,35.1868603 130.43456,35.0215175 Z" id="Path" fill="#002C3C"></path>
            <path d="M140.480976,62.9774555 C140.464228,63.1424559 140.437226,63.3077987 140.406806,63.4697182 C140.372968,63.6316378 140.332636,63.793215 140.28581,63.9517113 C140.235566,64.1067843 140.181562,64.2656229 140.117646,64.4172727 C140.054072,64.5685802 139.98332,64.7171491 139.909151,64.8619524 C139.832246,65.007098 139.744405,65.1519013 139.653487,65.2902004 C139.562569,65.424734 139.465157,65.5599522 139.360568,65.6879816 C139.255978,65.816011 139.14216,65.9406172 139.027316,66.0552959 C138.909397,66.1737402 138.784983,66.2846534 138.657151,66.3924856 C138.529319,66.4934714 138.39807,66.5951418 138.259984,66.6858578 C138.121898,66.7772585 137.980736,66.8614703 137.835473,66.9384934 C137.690893,67.0158587 137.539477,67.0867199 137.388062,67.1507346 C137.236646,67.2147493 137.078053,67.2691789 136.923219,67.3191583 C136.764967,67.3667414 136.603981,67.4067934 136.44197,67.4403412 C136.280642,67.4708081 136.115554,67.4975094 135.953885,67.5112024 C135.789481,67.5279763 135.620975,67.538246 135.45623,67.538246 C135.291484,67.538246 135.126396,67.5279763 134.96165,67.5112024 C134.796905,67.4978517 134.631817,67.4708081 134.470148,67.4403412 C134.30882,67.4064511 134.14715,67.3660568 133.992316,67.3191583 C133.834065,67.2688366 133.679231,67.2147493 133.527815,67.1507346 C133.372982,67.0870622 133.225326,67.016201 133.080062,66.9384934 C132.935483,66.861128 132.790903,66.7769161 132.655893,66.6858578 C132.517808,66.5947995 132.38314,66.4938137 132.25565,66.3924856 C132.127476,66.2846534 132.003404,66.1737402 131.888561,66.0552959 C131.770641,65.9406172 131.659899,65.816011 131.551892,65.6879816 C131.451062,65.5599522 131.34989,65.4250763 131.259314,65.2902004 C131.168054,65.1519013 131.083972,65.007098 131.007068,64.8619524 C130.929481,64.7171491 130.859071,64.5685802 130.794813,64.4172727 C130.731239,64.2656229 130.676893,64.1067843 130.626649,63.9517113 C130.579481,63.793215 130.539149,63.6319801 130.505653,63.4697182 C130.475233,63.308141 130.448573,63.1427983 130.434901,62.9774555 C130.418153,62.812455 130.4079,62.6474546 130.4079,62.4821118 C130.4079,62.316769 130.418153,62.1483453 130.434901,61.9833449 C130.448232,61.8217677 130.475233,61.6564249 130.505653,61.4945053 C130.539149,61.3329281 130.579823,61.1710086 130.626649,61.0125123 C130.677235,60.8574393 130.731239,60.698943 130.794813,60.5472932 C130.858729,60.3956434 130.929481,60.2439936 131.007068,60.098848 C131.083972,59.9540447 131.168396,59.8123223 131.259314,59.6740232 C131.350232,59.535724 131.45072,59.4042714 131.551892,59.276242 C131.659557,59.1478703 131.770641,59.0236064 131.888561,58.9051621 C132.003404,58.7904834 132.127476,58.676147 132.25565,58.5713956 C132.383482,58.4669866 132.517808,58.3690818 132.655893,58.2780235 C132.790561,58.1869651 132.935141,58.0996723 133.080062,58.0219647 C133.224984,57.9476802 133.372982,57.8771614 133.524397,57.8131467 C133.679231,57.7494743 133.834065,57.6950447 133.992316,57.644723 C134.14715,57.5974822 134.30882,57.5570879 134.470148,57.5235401 C134.631817,57.4930732 134.796905,57.4663718 134.961992,57.4489133 C135.291484,57.4184464 135.625077,57.4184464 135.954568,57.4489133 C136.116238,57.4660295 136.281326,57.4930732 136.442653,57.5235401 C136.604323,57.5574302 136.765651,57.5978245 136.923902,57.644723 C137.078736,57.695387 137.23733,57.7494743 137.388745,57.8131467 C137.539819,57.8771614 137.691235,57.9480226 137.836157,58.0219647 C137.981078,58.09933 138.122582,58.1869651 138.260667,58.2780235 C138.398753,58.3694241 138.533421,58.4669866 138.657835,58.5713956 C138.785666,58.676147 138.91008,58.7904834 139.028,58.9051621 C139.142843,59.0236064 139.257345,59.1478703 139.361251,59.276242 C139.465841,59.4042714 139.563595,59.535724 139.654171,59.6740232 C139.74543,59.8123223 139.832588,59.9537023 139.909834,60.098848 C139.984346,60.2436513 140.054756,60.3953011 140.11833,60.5472932 C140.182246,60.698943 140.236591,60.8574393 140.286494,61.0125123 C140.334003,61.1710086 140.373993,61.3325858 140.407489,61.4945053 C140.437909,61.6564249 140.464569,61.8217677 140.481659,61.9833449 C140.498407,62.1483453 140.505243,62.3171113 140.505243,62.4821118 C140.505243,62.6471122 140.497382,62.8121127 140.480976,62.9774555 Z" id="Path" fill="#002C3C"></path>
            <path d="M153.942619,49.4984246 C153.925871,49.6603441 153.902287,49.8256869 153.868449,49.9872641 C153.834612,50.1491837 153.79428,50.3107609 153.747454,50.4692572 C153.700286,50.6243302 153.643206,50.7831688 153.57929,50.9348186 C153.515716,51.0861261 153.444964,51.2346949 153.367376,51.3794982 C153.290472,51.5277248 153.206048,51.6694472 153.115131,51.8077463 C153.024213,51.9422799 152.926801,52.0774981 152.822211,52.2055275 C152.714887,52.3335569 152.603804,52.458163 152.48896,52.5728418 C152.37104,52.6912861 152.246626,52.8018569 152.118795,52.9100315 C151.990963,53.0110173 151.856295,53.1126877 151.721627,53.2034037 C151.583542,53.2948044 151.44238,53.3790162 151.29404,53.4560392 C151.152537,53.5337469 151.001121,53.6042658 150.850047,53.6682805 C150.698631,53.7322952 150.540038,53.7867248 150.385204,53.8367042 C150.226953,53.8842873 150.065967,53.9243393 149.903955,53.9551485 C149.742627,53.9886963 149.57754,54.0157399 149.41587,54.0294329 C149.251125,54.0462068 149.082961,54.0564766 148.918215,54.0564766 C148.753469,54.0564766 148.584964,54.0462068 148.420218,54.0294329 C148.25889,54.0160823 148.093803,53.9890386 147.932133,53.9551485 C147.770805,53.9243393 147.609136,53.8842873 147.454302,53.8367042 C147.29605,53.7863825 147.13814,53.7322952 146.986383,53.6682805 C146.834967,53.6046081 146.686969,53.5337469 146.542048,53.4560392 C146.394392,53.3790162 146.252888,53.294462 146.114803,53.2034037 C145.980135,53.1123453 145.845467,53.0113596 145.717635,52.9100315 C145.589462,52.8021993 145.46539,52.6912861 145.347128,52.5728418 C145.232626,52.458163 145.118125,52.3335569 145.013877,52.2055275 C144.909629,52.0774981 144.811875,51.9426222 144.721299,51.8077463 C144.63004,51.6694472 144.545958,51.5280671 144.469054,51.3794982 C144.391808,51.2346949 144.321056,51.0861261 144.256798,50.9348186 C144.193224,50.7831688 144.138879,50.6243302 144.088635,50.4692572 C144.041467,50.3107609 144.001135,50.149526 143.967639,49.9872641 C143.937219,49.8256869 143.910559,49.6603441 143.893127,49.4984246 C143.876379,49.3334242 143.869885,49.1650005 143.869885,49 C143.869885,48.8349995 143.876721,48.6662335 143.893127,48.5012331 C143.910217,48.3396559 143.937219,48.1743131 143.967639,48.0123935 C144.001135,47.8508163 144.041809,47.6888968 144.088635,47.5338238 C144.13922,47.3753275 144.193224,47.2171735 144.256798,47.0651814 C144.320714,46.9135316 144.391466,46.7653051 144.469054,46.6201594 C144.545958,46.4722752 144.630382,46.3305528 144.721299,46.1922537 C144.812217,46.0573778 144.909629,45.9225019 145.013877,45.7944725 C145.118467,45.6661008 145.232626,45.541837 145.347128,45.4233926 C146.404304,44.364925 147.921537,43.815494 149.41587,43.9671438 C149.57754,43.9842601 149.742627,44.0113037 149.903955,44.0417706 C150.065625,44.0753184 150.226953,44.116055 150.385204,44.1626112 C150.540038,44.2132752 150.698631,44.2673625 150.850047,44.3310349 C151.001121,44.3950496 151.152537,44.4659108 151.29404,44.5432761 C151.442038,44.6206415 151.583542,44.7051956 151.721627,44.7959117 C151.855953,44.8873123 151.990963,44.9848748 152.118795,45.0892838 C152.246626,45.1940352 152.37104,45.3083716 152.48896,45.4230503 C152.603804,45.5414946 152.714887,45.6657585 152.822211,45.7941302 C152.926801,45.9221596 153.024555,46.0566931 153.115131,46.1919114 C153.20639,46.3302105 153.290472,46.4715906 153.367376,46.6198171 C153.444964,46.7649627 153.515374,46.9131893 153.57929,47.0648391 C153.643206,47.2164889 153.700286,47.3749852 153.747454,47.5334814 C153.794963,47.6885545 153.834953,47.850474 153.868449,48.0120512 C153.902287,48.1739708 153.925529,48.3393135 153.942619,48.5008907 C153.959367,48.6658912 153.966203,48.8346572 153.966203,48.9996577 C153.966203,49.1646581 153.959025,49.3334242 153.942619,49.4984246 Z" id="Path" fill="#002C3C"></path>
        </g>
    </g>
</svg>