<?xml version="1.0" encoding="UTF-8"?>
<svg width="311px" height="304px" viewBox="0 0 311 304" version="1.1" xmlns="http://www.w3.org/2000/svg" xmlns:xlink="http://www.w3.org/1999/xlink">
    <title>keyboard</title>
    <defs>
        <filter x="-22.3%" y="-24.7%" width="144.6%" height="149.4%" filterUnits="objectBoundingBox" id="filter-1">
            <feOffset dx="0" dy="20" in="SourceAlpha" result="shadowOffsetOuter1"></feOffset>
            <feColorMatrix values="0 0 0 0 0   0 0 0 0 0   0 0 0 0 0  0 0 0 0.325857736 0" type="matrix" in="shadowOffsetOuter1" result="shadowMatrixOuter1"></feColorMatrix>
            <feMerge>
                <feMergeNode in="shadowMatrixOuter1"></feMergeNode>
                <feMergeNode in="SourceGraphic"></feMergeNode>
            </feMerge>
        </filter>
    </defs>
    <g id="Page-1" stroke="none" stroke-width="1" fill="none" fill-rule="evenodd">
        <g id="keyboard" filter="url(#filter-1)" transform="translate(155.500000, 152.000000) rotate(-30.000000) translate(-155.500000, -152.000000) translate(68.000000, 73.000000)" fill-rule="nonzero">
            <path d="M164.746094,60.1904762 L102.630664,60.1904762 C108.645264,53.996329 114.501953,44.8039437 114.501953,32.4891775 C114.501953,20.3672944 117.309473,16.5653766 119.755713,14.6074762 C123.512061,11.6006883 130.430371,10.2597403 142.1875,10.2597403 C145.018945,10.2597403 147.314453,7.96292641 147.314453,5.12987013 C147.314453,2.29681385 145.018945,0 142.1875,0 C127.557568,0 119.202686,1.91104762 113.349756,6.59598701 C105.282666,13.0534675 104.248047,23.8258528 104.248047,32.4891775 C104.248047,48.4201602 90.0556152,57.8953723 86.1687012,60.1904762 L10.2539062,60.1904762 C4.59990234,60.1904762 0,64.7929957 0,70.4502165 L0,147.74026 C0,153.397481 4.59990234,158 10.2539062,158 L164.746094,158 C170.400098,158 175,153.397481 175,147.74026 L175,70.4502165 C175,64.7929957 170.400098,60.1904762 164.746094,60.1904762 Z" id="Shape" fill="#00607F"></path>
            <path d="M109.375,82.0779221 L114.84375,82.0779221 C117.675195,82.0779221 119.970703,84.3747359 119.970703,87.2077922 C119.970703,90.0408485 117.675195,92.3376623 114.84375,92.3376623 L109.375,92.3376623 C106.543555,92.3376623 104.248047,90.0408485 104.248047,87.2077922 C104.248047,84.3747359 106.543555,82.0779221 109.375,82.0779221 Z" id="Path" fill="#002C3C"></path>
            <path d="M95.703125,103.965368 L101.171875,103.965368 C104.00332,103.965368 106.298828,106.262182 106.298828,109.095238 C106.298828,111.928294 104.00332,114.225108 101.171875,114.225108 L95.703125,114.225108 C92.8716797,114.225108 90.5761719,111.928294 90.5761719,109.095238 C90.5761719,106.262182 92.8716797,103.965368 95.703125,103.965368 Z" id="Path" fill="#002C3C"></path>
            <path d="M82.03125,82.0779221 L87.5,82.0779221 C90.3314453,82.0779221 92.6269531,84.3747359 92.6269531,87.2077922 C92.6269531,90.0408485 90.3314453,92.3376623 87.5,92.3376623 L82.03125,92.3376623 C79.1998047,92.3376623 76.9042969,90.0408485 76.9042969,87.2077922 C76.9042969,84.3747359 79.1998047,82.0779221 82.03125,82.0779221 Z" id="Path" fill="#002C3C"></path>
            <path d="M73.828125,103.965368 C76.6595703,103.965368 78.9550781,106.262182 78.9550781,109.095238 C78.9550781,111.928294 76.6595703,114.225108 73.828125,114.225108 L68.359375,114.225108 C65.5279297,114.225108 63.2324219,111.928294 63.2324219,109.095238 C63.2324219,106.262182 65.5279297,103.965368 68.359375,103.965368 L73.828125,103.965368 Z" id="Path" fill="#002C3C"></path>
            <path d="M54.6875,82.0779221 L60.15625,82.0779221 C62.9876953,82.0779221 65.2832031,84.3747359 65.2832031,87.2077922 C65.2832031,90.0408485 62.9876953,92.3376623 60.15625,92.3376623 L54.6875,92.3376623 C51.8560547,92.3376623 49.5605469,90.0408485 49.5605469,87.2077922 C49.5605469,84.3747359 51.8560547,82.0779221 54.6875,82.0779221 Z" id="Path" fill="#002C3C"></path>
            <path d="M27.34375,82.0779221 L32.8125,82.0779221 C35.6439453,82.0779221 37.9394531,84.3747359 37.9394531,87.2077922 C37.9394531,90.0408485 35.6439453,92.3376623 32.8125,92.3376623 L27.34375,92.3376623 C24.5123047,92.3376623 22.2167969,90.0408485 22.2167969,87.2077922 C22.2167969,84.3747359 24.5123047,82.0779221 27.34375,82.0779221 Z" id="Path" fill="#002C3C"></path>
            <path d="M32.8125,136.112554 L27.34375,136.112554 C24.5123047,136.112554 22.2167969,133.81574 22.2167969,130.982684 C22.2167969,128.149628 24.5123047,125.852814 27.34375,125.852814 L32.8125,125.852814 C35.6439453,125.852814 37.9394531,128.149628 37.9394531,130.982684 C37.9394531,133.81574 35.6439453,136.112554 32.8125,136.112554 Z" id="Path" fill="#002C3C"></path>
            <path d="M41.015625,114.225108 C38.1841797,114.225108 35.8886719,111.928294 35.8886719,109.095238 C35.8886719,106.262182 38.1841797,103.965368 41.015625,103.965368 L46.484375,103.965368 C49.3158203,103.965368 51.6113281,106.262182 51.6113281,109.095238 C51.6113281,111.928294 49.3158203,114.225108 46.484375,114.225108 L41.015625,114.225108 Z" id="Path" fill="#002C3C"></path>
            <path d="M120.3125,136.112554 L54.6875,136.112554 C51.8560547,136.112554 49.5605469,133.81574 49.5605469,130.982684 C49.5605469,128.149628 51.8560547,125.852814 54.6875,125.852814 L120.3125,125.852814 C123.143945,125.852814 125.439453,128.149628 125.439453,130.982684 C125.439453,133.81574 123.143945,136.112554 120.3125,136.112554 Z" id="Path" fill="#002C3C"></path>
            <path d="M128.515625,114.225108 L123.046875,114.225108 C120.21543,114.225108 117.919922,111.928294 117.919922,109.095238 C117.919922,106.262182 120.21543,103.965368 123.046875,103.965368 L128.515625,103.965368 C131.34707,103.965368 133.642578,106.262182 133.642578,109.095238 C133.642578,111.928294 131.34707,114.225108 128.515625,114.225108 Z" id="Path" fill="#002C3C"></path>
            <path d="M131.591797,87.2077922 C131.591797,84.3747359 133.887305,82.0779221 136.71875,82.0779221 L142.1875,82.0779221 C145.018945,82.0779221 147.314453,84.3747359 147.314453,87.2077922 C147.314453,90.0408485 145.018945,92.3376623 142.1875,92.3376623 L136.71875,92.3376623 C133.887305,92.3376623 131.591797,90.0408485 131.591797,87.2077922 Z" id="Path" fill="#002C3C"></path>
            <path d="M147.65625,136.112554 L142.1875,136.112554 C139.356055,136.112554 137.060547,133.81574 137.060547,130.982684 C137.060547,128.149628 139.356055,125.852814 142.1875,125.852814 L147.65625,125.852814 C150.487695,125.852814 152.783203,128.149628 152.783203,130.982684 C152.783203,133.81574 150.487695,136.112554 147.65625,136.112554 Z" id="Path" fill="#002C3C"></path>
        </g>
    </g>
</svg>