<?xml version="1.0" encoding="UTF-8"?>
<svg width="275px" height="261px" viewBox="0 0 275 261" version="1.1" xmlns="http://www.w3.org/2000/svg" xmlns:xlink="http://www.w3.org/1999/xlink">
    <title>game-controller (1)</title>
    <defs>
        <filter x="-25.0%" y="-32.8%" width="150.0%" height="165.5%" filterUnits="objectBoundingBox" id="filter-1">
            <feOffset dx="0" dy="20" in="SourceAlpha" result="shadowOffsetOuter1"></feOffset>
            <feColorMatrix values="0 0 0 0 0   0 0 0 0 0   0 0 0 0 0  0 0 0 0.325857736 0" type="matrix" in="shadowOffsetOuter1" result="shadowMatrixOuter1"></feColorMatrix>
            <feMerge>
                <feMergeNode in="shadowMatrixOuter1"></feMergeNode>
                <feMergeNode in="SourceGraphic"></feMergeNode>
            </feMerge>
        </filter>
    </defs>
    <g id="Page-1" stroke="none" stroke-width="1" fill="none" fill-rule="evenodd">
        <g id="game-controller-(1)" filter="url(#filter-1)" transform="translate(137.491670, 130.406733) rotate(-30.000000) translate(-137.491670, -130.406733) translate(59.491670, 70.906733)" fill-rule="nonzero">
            <path d="M0.747767916,32.261851 L0.747767916,94.6378504 C0.747767916,107.112688 10.8781725,117.261851 23.3299521,117.261851 C31.8843081,117.261851 39.8442135,112.289148 43.6082629,104.593233 L63.7477679,63.4188639 L0.747767916,32.261851 Z" id="XMLID_267_" fill="#00607F"></path>
            <polygon id="XMLID_218_" fill="#00607F" points="31.1041744 1.70225059 60.2874573 54.7022506 91.7412295 54.7022506 124.104174 1.70225059"></polygon>
            <polygon id="XMLID_304_" fill="#00607F" points="78.3576952 1.55994574 78.3576952 54.5599457 92.3427389 54.5599457 124.357695 1.55994574"></polygon>
            <path d="M91.1637748,64.4790886 L111.414162,105.988418 C115.169049,113.684332 123.108005,118.656733 131.64017,118.656733 C144.05995,118.656733 154.163775,108.50757 154.163775,96.0327327 L154.163775,33.6567333 L91.1637748,64.4790886 Z" id="XMLID_216_" fill="#00607F"></path>
            <path d="M124.660408,0.698729811 C107.566945,0.698729811 93.660254,14.6053522 93.660254,31.6987298 C93.660254,36.2253532 94.6150262,40.5904431 96.4987742,44.6730029 L96.7395402,45.1950694 L105.640818,56.1870254 L106.099624,56.5303609 C111.491676,60.5659347 117.90944,62.6987298 124.6601,62.6987298 C141.753563,62.6987298 155.660254,48.7921074 155.660254,31.6984227 C155.660254,14.604738 141.75387,0.698729811 124.660408,0.698729811 Z" id="XMLID_296_" fill="#00607F"></path>
            <path d="M123.147114,27.8195647 C125.498933,27.8195647 127.752135,25.7498647 127.643327,23.3195647 C127.534219,20.8814647 125.667691,18.8195647 123.147114,18.8195647 C120.795295,18.8195647 118.542093,20.8892647 118.650902,23.3195647 C118.76001,25.7576647 120.626538,27.8195647 123.147114,27.8195647 Z" id="XMLID_43_" fill="#002C3C"></path>
            <path d="M123.673394,48.908022 C126.025213,48.908022 128.278415,46.838322 128.169606,44.408022 C128.060498,41.969922 126.193971,39.908022 123.673394,39.908022 C121.321575,39.908022 119.068373,41.977722 119.177181,44.408022 C119.286289,46.846122 121.152817,48.908022 123.673394,48.908022 Z" id="XMLID_118_" fill="#002C3C"></path>
            <path d="M113.549038,38.4439203 C115.900857,38.4439203 118.154059,36.3742203 118.045251,33.9439203 C117.936143,31.5058203 116.069615,29.4439203 113.549038,29.4439203 C111.197219,29.4439203 108.944017,31.5136203 109.052826,33.9439203 C109.161934,36.3820203 111.028461,38.4439203 113.549038,38.4439203 Z" id="XMLID_151_" fill="#002C3C"></path>
            <path d="M135.003521,39.2836663 C137.35534,39.2836663 139.608542,37.2139663 139.499733,34.7836663 C139.390625,32.3455663 137.524098,30.2836663 135.003521,30.2836663 C132.651702,30.2836663 130.3985,32.3533663 130.507308,34.7836663 C130.616416,37.2217663 132.482644,39.2836663 135.003521,39.2836663 Z" id="XMLID_154_" fill="#002C3C"></path>
            <polygon id="XMLID_682_" fill="#00465F" points="70.3721236 19.238149 85.3721236 19.238149 85.3721236 28.238149 70.3721236 28.238149"></polygon>
            <polygon id="XMLID_700_" fill="#002C3C" points="77.9032125 19.2560982 85.9032125 19.2560982 85.9032125 28.2560982 77.9032125 28.2560982"></polygon>
            <path d="M31.8783753,1.40192379 C14.7847753,1.40192379 0.878221735,15.3084084 0.878221735,32.4019238 C0.878221735,49.4954391 14.7847753,63.4019238 31.8783753,63.4019238 C38.6108497,63.4019238 45.014731,61.2795911 50.3978239,57.2640184 L50.8587756,56.9200721 L59.7977377,45.9005864 L60.0394226,45.3766826 C61.9231519,41.2938561 62.8782217,36.9285024 62.8782217,32.4019238 C62.8782217,15.3084084 48.9716682,1.40192379 31.8783753,1.40192379 Z" id="XMLID_388_" fill="#00607F"></path>
            <ellipse id="XMLID_300_" fill="#002C3C" cx="58.1400728" cy="53.9150635" rx="16.5" ry="15.5"></ellipse>
            <path d="M98.4508034,38.5945554 C89.3527096,38.5945554 81.9509619,45.5476456 81.9509619,54.0945554 C81.9509619,62.6414652 89.3527096,69.5945554 98.4508034,69.5945554 C107.549214,69.5945554 114.950962,62.6414652 114.950962,54.0945554 C114.950962,45.5476456 107.549214,38.5945554 98.4508034,38.5945554 Z" id="XMLID_222_" fill="#002C3C"></path>
            <line x1="31.8782217" y1="20.4019238" x2="31.8782217" y2="44.4019238" id="XMLID_243_" fill="#FDF6C8"></line>
            <line x1="43.8782217" y1="32.4019238" x2="19.8782217" y2="32.4019238" id="XMLID_155_" fill="#FDF6C8"></line>
            <polygon id="XMLID_582_" fill="#002C3C" points="43.8782217 27.7001932 36.5801704 27.7001932 36.5801704 20.4019238 27.176273 20.4019238 27.176273 27.7001932 19.8782217 27.7001932 19.8782217 37.1039678 27.176273 37.1039678 27.176273 44.4019238 36.5801704 44.4019238 36.5801704 37.1039678 43.8782217 37.1039678"></polygon>
        </g>
    </g>
</svg>
