<?xml version="1.0" encoding="UTF-8"?>
<svg width="258px" height="231px" viewBox="0 0 258 231" version="1.1" xmlns="http://www.w3.org/2000/svg" xmlns:xlink="http://www.w3.org/1999/xlink">
    <title>handheld</title>
    <defs>
        <filter x="-25.0%" y="-45.9%" width="150.0%" height="191.8%" filterUnits="objectBoundingBox" id="filter-1">
            <feOffset dx="0" dy="20" in="SourceAlpha" result="shadowOffsetOuter1"></feOffset>
            <feColorMatrix values="0 0 0 0 0   0 0 0 0 0   0 0 0 0 0  0 0 0 0.325857736 0" type="matrix" in="shadowOffsetOuter1" result="shadowMatrixOuter1"></feColorMatrix>
            <feMerge>
                <feMergeNode in="shadowMatrixOuter1"></feMergeNode>
                <feMergeNode in="SourceGraphic"></feMergeNode>
            </feMerge>
        </filter>
    </defs>
    <g id="Page-1" stroke="none" stroke-width="1" fill="none" fill-rule="evenodd">
        <g id="handheld" filter="url(#filter-1)" transform="translate(129.000000, 115.500000) rotate(-30.000000) translate(-129.000000, -115.500000) translate(51.000000, 73.000000)" fill-rule="nonzero">
            <path d="M145.736842,4.26325641e-14 L10.2631579,4.26325641e-14 C4.59515789,4.26325641e-14 3.41060513e-13,4.61068147 3.41060513e-13,10.2978294 L3.41060513e-13,74.7021706 C3.41060513e-13,80.3893185 4.59515789,85 10.2631579,85 L145.736842,85 C151.404842,85 156,80.3893185 156,74.7021706 L156,10.2978294 C156,4.61033821 151.404842,4.26325641e-14 145.736842,4.26325641e-14 Z" id="Shape" fill="#00607F"></path>
            <path d="M40.4471053,46.2032711 C40.4471053,47.2989601 39.5596842,48.1869763 38.4721316,48.1869763 L31.7470263,48.1869763 L31.7470263,54.9323978 C31.7470263,56.0280868 30.8596053,56.9164462 29.7720526,56.9164462 L22.386,56.9164462 C21.2981053,56.9164462 20.4106842,56.0280868 20.4106842,54.9323978 L20.4106842,48.1869763 L13.6855789,48.1869763 C12.5976842,48.1869763 11.7106053,47.2989601 11.7106053,46.2032711 L11.7106053,38.7963857 C11.7106053,37.7000101 12.5980263,36.8119939 13.6855789,36.8119939 L20.4103421,36.8119939 L20.4103421,30.0669157 C20.4103421,28.9708834 21.2981053,28.0828672 22.3856579,28.0828672 L29.7717105,28.0828672 C30.8596053,28.0828672 31.7466842,28.9708834 31.7466842,30.0669157 L31.7466842,36.8119939 L38.4717895,36.8119939 C39.5596842,36.8119939 40.4467632,37.7000101 40.4467632,38.7963857 L40.4471053,46.2032711 L40.4471053,46.2032711 Z" id="Path" fill="#002C3C" transform="translate(26.078855, 42.499657) scale(1, -1) translate(-26.078855, -42.499657) "></path>
            <polygon id="Path" fill="#002C3C" transform="translate(78.000000, 42.499828) scale(1, -1) translate(-78.000000, -42.499828) " points="106.565789 71.6255225 49.4342105 71.6255225 49.4342105 13.3741343 106.565789 13.3741343"></polygon>
            <path d="M132.052632,61.0359213 C128.084895,61.0359213 124.868421,57.8085815 124.868421,53.8274407 C124.868421,49.8459566 128.084895,46.6189601 132.052632,46.6189601 C136.020368,46.6189601 139.236842,49.8459566 139.236842,53.8274407 C139.236842,57.8085815 136.020368,61.0359213 132.052632,61.0359213 Z" id="Path" fill="#002C3C" transform="translate(132.052632, 53.827441) scale(1, -1) translate(-132.052632, -53.827441) "></path>
            <path d="M132.052632,38.3806966 C128.084895,38.3806966 124.868421,35.1533569 124.868421,31.1722161 C124.868421,27.1910752 128.084895,23.9637355 132.052632,23.9637355 C136.020368,23.9637355 139.236842,27.1910752 139.236842,31.1722161 C139.236842,35.1533569 136.020368,38.3806966 132.052632,38.3806966 Z" id="Path" fill="#002C3C" transform="translate(132.052632, 31.172216) scale(1, -1) translate(-132.052632, -31.172216) "></path>
        </g>
    </g>
</svg>